#!OML:ASF E:/inclinewalkrobotboard/Project1/Captureday1/Session1/subject1.ASF
:FULLY-SPECIFIED
:DEGREES
126
root 0 0 0 1.9784614109666 -10.614578673229598 1.0250306190129725
lowerback 0.07858471926644328 -1.812414342308132 -2.6561453697946256
upperback -0.2166414840234986 -2.364188060064679 1.9519823137049357
thorax -0.12147385115988163 -1.195599887305568 3.4449331524157065
lowerneck -26.857179929089085 -1.8065358489473748 -7.584557144536019
upperneck 23.237035828252104 0.07648927890754198 2.371056825307316
head 12.195811141693895 -0.44415323092899617 2.2619315304315997
rclavicle 4.0380500888957275E-15 -2.1049685354742563E-15
rhumerus -34.38454543881815 -3.860152191380372 -77.88574656213649
rradius 28.469352360565267
rwrist 20.672802270839043
rhand -17.601981258165456 8.887489956881492
rfingers 7.125019999999955
rthumb 8.648224893382675 -20.92270146292742
lclavicle 5.661098544519959E-16 6.887638752669763E-16
lhumerus -22.887285675775534 -8.537406829738952 91.31759798556975
lradius 64.86185757270621
lwrist 4.715592943508341
lhand -27.17037128444583 23.39925495382132
lfingers 7.125019999999984
lthumb -0.6096245703355381 53.509664964288596
rfemur -36.64211975889209 4.584170389846066 20.32892924976711
rtibia 24.751558217829974
rfoot -4.864484698738789 -11.132387596694066
rtoes 2.0039439409107214
lfemur 15.126867747376808 -2.7779717275129383 -23.392467789673272
ltibia 37.05048030693994
lfoot 1.8394644588925964 -15.45451616916772
ltoes -17.1311564521774
127
root 0 0 0 1.8835269167244946 -10.393385246320559 0.9891186339828253
lowerback 0.2469311194607584 -1.7236212884736783 -2.632772768758122
upperback -0.3183696582032821 -2.238036443120407 2.0312490002279833
thorax -0.336007875290819 -1.1306545651678899 3.5161217233043494
lowerneck -26.700554840261997 -1.7973511947324363 -7.430765089787298
upperneck 22.33541615188913 0.05248759080860865 2.437813036093977
head 11.87222920753106 -0.4298081594190125 2.2538828348486284
rclavicle 3.528808578841636E-15 -1.7152070372710413E-15
rhumerus -34.48378760800477 -4.568223944595611 -77.95420251527243
rradius 28.42508803820902
rwrist 20.82775696750592
rhand -17.456148497873677 8.837076448146886
rfingers 7.125019999999954
rthumb 8.790358841517312 -20.95166530999925
lclavicle -9.013740671224904E-16 9.554387146491346E-16
lhumerus -23.254586268055462 -7.5088955773736235 91.62047810359388
lradius 64.1399047995245
lwrist 4.437895934379857
lhand -27.161802083944877 22.783722075164697
lfingers 7.1250199999999895
lthumb -0.6055442726401532 52.88588002204209
rfemur -30.932685563794905 5.632752672460137 27.465939794628287
rtibia 23.389543593579408
rfoot -4.277583568128055 -9.622491524292618
rtoes 8.994412246771784
lfemur 3.2034039150719495 -1.360033414478822 -19.006234568749377
ltibia 47.39853525766518
lfoot 9.583701228482946 -15.85990574367028
ltoes -12.210940618977947
128
root 0 0 0 1.819555503113098 -10.257142409459625 0.928224740248606
lowerback 0.33087873951637325 -1.6582809305691817 -2.6078333886448215
upperback -0.37460484519482584 -2.147054982306966 2.0400749832267984
thorax -0.454282418260217 -1.0844377918992387 3.5116403923431507
lowerneck -26.19451823315184 -1.7590800130801727 -7.384095622532163
upperneck 22.595509003841794 0.060807431951583446 2.4090479476067466
head 11.895061878302025 -0.43899856577308916 2.245301174840683
rclavicle 2.5457352373587693E-15 -1.3595927752884335E-15
rhumerus -34.38444628193692 -5.0726147661080185 -78.19192590235495
rradius 28.519221702520486
rwrist 20.81624233313666
rhand -17.349846867949413 8.842200331508431
rfingers 7.125019999999951
rthumb 8.89405448661234 -20.922122441538885
lclavicle -1.563673485593576E-15 1.4256523093799804E-15
lhumerus -23.56906587744944 -6.041024654245123 92.08722951601223
lradius 63.3266743945549
lwrist 3.8400203902132626
lhand -27.379461394192717 22.050408028112493
lfingers 7.125019999999999
lthumb -0.8170974201686798 52.127566209002694
rfemur -21.86706785091034 6.6412926206352045 33.47845701740256
rtibia 23.280196832012585
rfoot -7.180988216059158 -8.799896002722718
rtoes 12.442126524394663
lfemur -4.198353977333464 -0.41908145262148744 -16.622994495704315
ltibia 52.75733743254282
lfoot 10.883889237800618 -13.80245792088767
ltoes -8.700283939855098
129
root 0 0 0 1.7987381788958468 -10.21732685543531 0.9034097918589212
lowerback 0.3391175823782506 -1.629635036645297 -2.601640216846448
upperback -0.40063361536831954 -2.1112918056619114 2.0217467514903595
thorax -0.49296413384168636 -1.064672160663676 3.4881070269876857
lowerneck -25.930241052228723 -1.7412937177153416 -7.383056273356255
upperneck 22.90447880937932 0.0608631321883657 2.389474005534952
head 11.963407506885302 -0.4502572863207698 2.242847981014146
rclavicle 1.7926775233949195E-15 -1.1418491123160368E-15
rhumerus -34.10933372389186 -5.352064511339205 -78.60078795815986
rradius 28.770806415524223
rwrist 20.660544127218742
rhand -17.292118833498996 8.878032784144315
rfingers 7.125019999999947
rthumb 8.950370580970132 -20.8697104892114
lclavicle -2.6228600928790407E-15 1.6512072728319877E-15
lhumerus -23.66967439997953 -5.095995596392882 92.45759681086368
lradius 62.86986134070076
lwrist 3.296478434128322
lhand -27.690761829294555 21.57278979837483
lfingers 7.125020000000006
lthumb -1.1150418878408317 51.62454756860485
rfemur -13.978677477582007 7.868889579900078 36.78818593327037
rtibia 19.805013650043207
rfoot -14.55984827635878 -8.945950008228937
rtoes 12.35112257979091
lfemur -10.99335425280592 0.9983805825388608 -13.957530146698028
ltibia 55.390070679268945
lfoot 6.944771940969611 -10.218523765288479
ltoes -10.37457192897391
130
root 0 0 0 1.7926822596619032 -10.22168476714135 0.9005053503908357
lowerback 0.26510331683991417 -1.6059802367301845 -2.624311577443055
upperback -0.44988809709771266 -2.0858503553287306 1.9932159178418494
thorax -0.5082452989026732 -1.0477906449542531 3.4680810758494314
lowerneck -25.82191581083778 -1.7712681066145561 -7.423215821716673
upperneck 23.139608093515804 6.213460383319713E-5 2.4418776186243223
head 12.02699401111699 -0.4822124655148683 2.2608999451266745
rclavicle 2.9097260800675604E-15 -6.848773581096104E-16
rhumerus -33.30623458537744 -5.2502705362717155 -79.59647659007582
rradius 29.495277682036683
rwrist 20.098961555884735
rhand -17.34607687757746 9.011997969610189
rfingers 7.125019999999936
rthumb 8.8988542674029 -20.72326440169396
lclavicle -3.2561164836237024E-15 2.4988290749857664E-15
lhumerus -23.487564096689272 -4.486388064352403 92.70345617336187
lradius 62.61474819543062
lwrist 2.7495861848673453
lhand -28.093190487261435 21.156063913820816
lfingers 7.12502000000001
lthumb -1.505109073636163 51.17960096739098
rfemur -3.6158476457874036 8.868340391612044 39.030210310143545
rtibia 16.636540442673933
rfoot -22.666776089092643 -8.766725697837899
rtoes 9.591366523098777
lfemur -19.40510857657494 2.7468774285043835 -12.889182323056055
ltibia 58.39000825351816
lfoot 0.2512939806689669 -6.246410787831088
ltoes -9.06612996457133
131
root 0 0 0 1.7933801448062552 -10.22808690543298 0.9092507922563502
lowerback 0.1989942668682767 -1.5936623083350014 -2.6437372499297416
upperback -0.48128542508034244 -2.07367621386175 1.965144244448116
thorax -0.5070568025149895 -1.0383334048404602 3.446967553497626
lowerneck -25.835154258676656 -1.8156363499299824 -7.455528354809061
upperneck 23.232458132608933 -0.0740967450194111 2.5021633456992305
head 12.061852370215146 -0.5138827830915118 2.2772561205562756
rclavicle 2.7120231069638547E-15 -5.690863761062784E-16
rhumerus -32.53992693142489 -4.729655684754159 -80.50135911992166
rradius 30.193160952436532
rwrist 19.5521186526948
rhand -17.512995383246327 9.13953940064599
rfingers 7.12501999999993
rthumb 8.736808533441645 -20.600392969570546
lclavicle -3.1323410753292908E-15 2.7119842914897693E-15
lhumerus -23.12812893605572 -3.939429574586618 92.64538333810341
lradius 62.48875022327863
lwrist 2.4961846692563237
lhand -28.261463979454795 21.028505175033395
lfingers 7.125020000000011
lthumb -1.6669992426817801 51.04011379679285
rfemur -0.13873205094052388 8.913167835819864 38.981915792895784
rtibia 17.43666036339026
rfoot -23.710145926081275 -8.518315663641072
rtoes 7.561422236401281
lfemur -22.7323330927569 2.84771927548847 -12.523840075461225
ltibia 57.354924521107144
lfoot -1.856394802932149 -4.5080526700979195
ltoes -8.069672429028067
132
root 0 0 0 1.8009555975274352 -10.230587757269518 0.9187139618288577
lowerback 0.14555243411884167 -1.5859654378701349 -2.659304434881412
upperback -0.49499100239112875 -2.0670880506315217 1.9393052777499968
thorax -0.4935188800807193 -1.0327970644477327 3.4259384929476218
lowerneck -25.86393102670205 -1.8617149468182954 -7.486544808366273
upperneck 23.309115716831755 -0.14926509112940656 2.561609540049192
head 12.093124925651093 -0.5443699980120169 2.2932123982114048
rclavicle -2.6940313763021168E-16 -6.682773263377264E-16
rhumerus -31.687202648673043 -3.6549675551348595 -81.45096155040486
rradius 30.971906856494332
rwrist 18.963925509407304
rhand -17.806335196317193 9.243841962573962
rfingers 7.125019999999929
rthumb 8.45246241045487 -20.509288123618532
lclavicle -3.595139147328131E-15 2.6755121955260483E-15
lhumerus -22.7691171876798 -3.3632519235538085 92.52131601351907
lradius 62.2540029828208
lwrist 2.35482356979169
lhand -28.33160506537887 20.909753116577598
lfingers 7.12502000000001
lthumb -1.735645151522844 50.91353790787781
rfemur 3.2923123683436177 8.822977965960783 38.754507602903416
rtibia 19.257034878553945
rfoot -24.11430780648503 -8.184818260557602
rtoes 5.353139939808498
lfemur -25.532798105570485 2.3772948024674543 -11.930602975544371
ltibia 53.67127605966629
lfoot -3.222244510454612 -2.7396190744889752
ltoes -7.232041148324013
133
root 0 0 0 1.8084927049224262 -10.244519213053188 0.9279688568075638
lowerback 0.09296610416460904 -1.5828926864365562 -2.671501508027636
upperback -0.5043845275124712 -2.0660137065426123 1.9136319143657319
thorax -0.4752335080246952 -1.030555518215144 3.4036105275697808
lowerneck -25.902599941779965 -1.9037294131432536 -7.515181642744621
upperneck 23.40603045708793 -0.21327889077883644 2.605026451541401
head 12.132877696221339 -0.5721049453057007 2.3048251071789236
rclavicle -3.396752254339729E-15 -9.623149267092365E-16
rhumerus -30.901564091059765 -2.03768710110426 -82.17363627151202
rradius 31.6469802156954
rwrist 18.419027478538002
rhand -18.183850360694553 9.307058593071183
rfingers 7.125019999999934
rthumb 8.088138954967686 -20.461066912045187
lclavicle -4.5542013158712956E-15 2.5304540697656767E-15
lhumerus -22.451473462014576 -2.853381203822711 92.3727687877159
lradius 61.97728430707558
lwrist 2.3048067683364577
lhand -28.33315527289838 20.804472726524576
lfingers 7.125020000000009
lthumb -1.7403183901767916 50.80396016092252
rfemur 7.073900524780367 8.732550013896539 38.42320662094117
rtibia 21.312065335335795
rfoot -24.012905701265172 -7.598156308252899
rtoes 2.7256432240769826
lfemur -29.334474706002663 1.0614107367883938 -10.967039796517138
ltibia 45.14263161330791
lfoot -4.603467416526962 -0.1258105310820241
ltoes -5.620281442471154
